<?xml version="1.0" encoding="utf-8"?>
<!-- Generator: Adobe Illustrator 22.1.0, SVG Export Plug-In . SVG Version: 6.00 Build 0)  -->
<svg version="1.1" id="Слой_1" xmlns="http://www.w3.org/2000/svg" xmlns:xlink="http://www.w3.org/1999/xlink" x="0px" y="0px"
	 viewBox="0 0 400 400" style="enable-background:new 0 0 400 400;" xml:space="preserve">
<style type="text/css">
	.st0{clip-path:url(#SVGID_2_);}
	.st1{fill:#77B70A;}
	.st2{enable-background:new    ;}
	.st3{fill:#FFFFFF;}
</style>
<g>
	<defs>
		<rect id="SVGID_1_" width="400" height="400"/>
	</defs>
	<clipPath id="SVGID_2_">
		<use xlink:href="#SVGID_1_"  style="overflow:visible;"/>
	</clipPath>
	<g id="a" class="st0">
		<g transform="translate(-440.001 -490.999)">
			<path class="st1" d="M718.3,651.9c-4.8-2-9.3-4.5-13.6-7.4c-34.3-23.5-45.3-69.1-25.4-105.6h105c8.3,0,15,6.7,15,15v86.8
				c-1.7,1.3-3.4,2.6-5.1,3.8c-4.3,2.9-8.8,5.4-13.6,7.4C760.6,660.3,738.2,660.3,718.3,651.9z"/>
			<path class="st1" d="M728.4,791.4H551.6c-3.1,0-6-1.2-8.2-3.4c-2.2-2.2-3.4-5.1-3.4-8.2V602.9c0-3.1,1.2-6,3.4-8.2
				c2.2-2.2,5.1-3.4,8.2-3.4h109.3c5.4,40.8,38.2,72.4,79.1,76.3v112.2c0,3.1-1.2,6-3.4,8.2C734.5,790.1,731.5,791.4,728.4,791.4z"
				/>
			<g class="st2">
				<path class="st3" d="M671.4,654.1v5.5c0,1.7-0.5,3.3-1.4,4.7l-41.2,58.2h41.6v11.9h-61v-5.9c0-0.7,0.1-1.5,0.4-2.1
					c0.3-0.7,0.6-1.3,1-1.9l41.3-58.4h-40.1v-11.9H671.4z"/>
			</g>
			<path class="st1" d="M748,662.4c-45.4,0-82.2-36.8-82.2-82.2c0-33,19.8-62.8,50.2-75.7c41.9-17.4,90,2.5,107.4,44.4
				c17.3,41.6-2.1,89.3-43.5,107C769.8,660.2,759,662.4,748,662.4z M748,503.6c-42.3,0-76.6,34.3-76.6,76.6s34.3,76.6,76.6,76.6
				c42.3,0,76.6-34.3,76.6-76.6C824.5,537.9,790.2,503.7,748,503.6L748,503.6z"/>
		</g>
	</g>
</g>
</svg>
